<svg width="32" height="32" viewBox="0 0 32 32" fill="none" xmlns="http://www.w3.org/2000/svg">
<path d="M3.87061 9L29.8706 1" stroke="#051259" stroke-width="2" stroke-linecap="round" stroke-linejoin="round"/>
<path d="M3.87061 11L29.8706 7" stroke="#051259" stroke-width="2" stroke-linecap="round" stroke-linejoin="round"/>
<path d="M11.416 9.83887C11.72 10.3944 11.8766 11.0186 11.8707 11.6519C11.8649 12.2851 11.6969 12.9064 11.3826 13.4562L10.1826 15.5442C9.75307 16.6422 9.60324 17.8299 9.74664 19.0002" stroke="#051259" stroke-width="2" stroke-linecap="round" stroke-linejoin="round"/>
<path d="M15.04 9.28125C15.5119 9.86115 15.7972 10.5703 15.8584 11.3155C15.9195 12.0606 15.7537 12.8068 15.3826 13.4559L14.1826 15.5439C13.7531 16.642 13.6032 17.8296 13.7466 18.9999" stroke="#051259" stroke-width="2" stroke-linecap="round" stroke-linejoin="round"/>
<path d="M18.956 9C19.5304 9.57449 19.9 10.322 20.0077 11.1272C20.1154 11.9324 19.9553 12.7507 19.552 13.456L18.3587 15.544C17.9291 16.642 17.7793 17.8297 17.9227 19" stroke="#051259" stroke-width="2" stroke-linecap="round" stroke-linejoin="round"/>
<path d="M3.13066 19C2.96659 19 2.80505 19.0404 2.66029 19.1176C2.51552 19.1948 2.39198 19.3065 2.30054 19.4427C2.20911 19.5789 2.1526 19.7356 2.13599 19.8988C2.11939 20.062 2.1432 20.2268 2.20533 20.3787C3.97731 23.9826 7.08733 26.7514 10.872 28.0947V30C10.872 30.2652 10.9773 30.5196 11.1649 30.7071C11.3524 30.8946 11.6068 31 11.872 31H19.872C20.1372 31 20.3916 30.8946 20.5791 30.7071C20.7666 30.5196 20.872 30.2652 20.872 30V28.0947C24.6558 26.7506 27.7654 23.9826 29.5387 20.38C29.6011 20.2281 29.6251 20.0631 29.6086 19.8997C29.5922 19.7363 29.5357 19.5795 29.4442 19.4431C29.3528 19.3067 29.2291 19.1949 29.0842 19.1176C28.9393 19.0403 28.7776 18.9999 28.6133 19H3.13066Z" stroke="#051259" stroke-width="2" stroke-linecap="round" stroke-linejoin="round"/>
</svg>
