<svg width="32" height="32" viewBox="0 0 32 32" fill="none" xmlns="http://www.w3.org/2000/svg">
<path d="M1 16.0308C1 16.959 1.36875 17.8493 2.02513 18.5056C2.6815 19.162 3.57174 19.5308 4.5 19.5308C5.42826 19.5308 6.3185 19.162 6.97487 18.5056C7.63125 17.8493 8 16.959 8 16.0308C8 15.1025 7.63125 14.2123 6.97487 13.5559C6.3185 12.8995 5.42826 12.5308 4.5 12.5308C3.57174 12.5308 2.6815 12.8995 2.02513 13.5559C1.36875 14.2123 1 15.1025 1 16.0308V16.0308Z" stroke="#051259" stroke-width="2" stroke-linecap="round" stroke-linejoin="round"/>
<path d="M24 16.0308C24 16.4904 24.0905 16.9455 24.2664 17.3702C24.4423 17.7948 24.7001 18.1806 25.0251 18.5056C25.3501 18.8306 25.736 19.0884 26.1606 19.2643C26.5852 19.4402 27.0404 19.5308 27.5 19.5308C27.9596 19.5308 28.4148 19.4402 28.8394 19.2643C29.264 19.0884 29.6499 18.8306 29.9749 18.5056C30.2999 18.1806 30.5577 17.7948 30.7336 17.3702C30.9095 16.9455 31 16.4904 31 16.0308C31 15.5711 30.9095 15.116 30.7336 14.6914C30.5577 14.2667 30.2999 13.8809 29.9749 13.5559C29.6499 13.2309 29.264 12.9731 28.8394 12.7972C28.4148 12.6213 27.9596 12.5308 27.5 12.5308C27.0404 12.5308 26.5852 12.6213 26.1606 12.7972C25.736 12.9731 25.3501 13.2309 25.0251 13.5559C24.7001 13.8809 24.4423 14.2667 24.2664 14.6914C24.0905 15.116 24 15.5711 24 16.0308V16.0308Z" stroke="#051259" stroke-width="2" stroke-linecap="round" stroke-linejoin="round"/>
<path d="M12.5 16.0308C12.5 16.959 12.8687 17.8493 13.5251 18.5056C14.1815 19.162 15.0717 19.5308 16 19.5308C16.9283 19.5308 17.8185 19.162 18.4749 18.5056C19.1313 17.8493 19.5 16.959 19.5 16.0308C19.5 15.1025 19.1313 14.2123 18.4749 13.5559C17.8185 12.8995 16.9283 12.5308 16 12.5308C15.0717 12.5308 14.1815 12.8995 13.5251 13.5559C12.8687 14.2123 12.5 15.1025 12.5 16.0308V16.0308Z" stroke="#051259" stroke-width="2" stroke-linecap="round" stroke-linejoin="round"/>
</svg>
