<svg width="48" height="48" viewBox="0 0 48 48" fill="none" xmlns="http://www.w3.org/2000/svg">
<path d="M42.2706 14.6904L27.6042 17.7601L18.054 27.6514L24.5345 34.473L42.2706 16.7369V14.6904Z" fill="#E9F4FF"/>
<path d="M19.1463 26.3172L32.2793 13.1842C34.239 11.2245 36.9742 10.2467 39.7322 10.52L39.9161 10.5383C40.9833 10.644 41.8276 11.4882 41.9333 12.5554L41.9515 12.7394C42.2248 15.4973 41.2471 18.2325 39.2874 20.1923L26.1543 33.3253C25.2757 34.2039 23.851 34.2039 22.9724 33.3253L19.1463 29.4992C18.2676 28.6205 18.2676 27.1959 19.1463 26.3172Z" stroke="#989DAD" stroke-width="1.5"/>
<path d="M12.5158 26.4486L20.4708 18.4935C20.5257 18.4386 20.603 18.4124 20.68 18.4224L25.6491 19.0728C25.8548 19.0997 25.9401 19.3508 25.7935 19.4975L17.8384 27.4525C17.7835 27.5075 17.7062 27.5337 17.6292 27.5237L12.6601 26.8733C12.4545 26.8464 12.3691 26.5952 12.5158 26.4486Z" stroke="#989DAD" stroke-width="1.5"/>
<path d="M26.1554 40.3049L34.1105 32.3499C34.1654 32.295 34.1916 32.2177 34.1816 32.1407L33.5312 27.1716C33.5043 26.9659 33.2532 26.8806 33.1065 27.0272L25.1515 34.9823C25.0966 35.0372 25.0703 35.1145 25.0804 35.1915L25.7307 40.1606C25.7576 40.3662 26.0088 40.4516 26.1554 40.3049Z" stroke="#989DAD" stroke-width="1.5"/>
<circle cx="35.1078" cy="17.0777" r="2.04647" fill="#989DAD"/>
<path d="M16.6897 30.7212L16.527 29.9891C16.2598 30.0485 16.0461 30.2487 15.9696 30.5115C15.8931 30.7743 15.9658 31.058 16.1594 31.2515L16.6897 30.7212ZM21.4648 35.4963L20.9344 36.0266C21.1104 36.2026 21.3622 36.2798 21.6066 36.2328C21.851 36.1857 22.0561 36.0205 22.1541 35.7918L21.4648 35.4963ZM19.5967 29.3069L16.527 29.9891L16.8524 31.4534L19.9221 30.7712L19.5967 29.3069ZM16.1594 31.2515L20.9344 36.0266L21.9951 34.966L17.22 30.1909L16.1594 31.2515ZM22.1541 35.7918L23.1774 33.4042L21.7987 32.8133L20.7754 35.2009L22.1541 35.7918Z" fill="#989DAD"/>
<path d="M4.62763 34.1318C2.45892 38.0642 1.73304 41.1157 2.95774 42.3851C4.81715 44.3078 10.6349 41.5894 17.3717 36.0601" stroke="#E9F4FF" stroke-width="4" stroke-linecap="round" stroke-linejoin="round"/>
<path d="M3.26338 34.1318C1.09466 38.0642 0.368781 41.1157 1.59349 42.3851C3.45289 44.3078 9.27069 41.5894 16.0075 36.0601" stroke="#989DAD" stroke-width="1.5" stroke-linecap="round" stroke-linejoin="round"/>
<path d="M10.8503 33.4498C8.02529 30.8521 6.24738 27.2936 5.85653 23.455C5.46568 19.6163 6.48932 15.7668 8.7317 12.6426C10.9741 9.51844 14.2779 7.33875 18.0112 6.5204C21.7446 5.70205 25.6457 6.30246 28.9683 8.20681" stroke="#989DAD" stroke-width="1.5" stroke-linecap="round" stroke-linejoin="round"/>
</svg>
