<svg width="38" height="38" viewBox="0 0 38 38" fill="none" xmlns="http://www.w3.org/2000/svg">
<rect x="2.375" y="6.32227" width="34.0417" height="14.2256" fill="#E9F4FF"/>
<rect x="0.75" y="4.7666" width="36.5" height="32.4834" rx="7.25" stroke="#989DAD" stroke-width="1.5"/>
<line x1="0.422245" y1="13.085" x2="38" y2="13.085" stroke="#989DAD" stroke-width="1.5"/>
<rect x="7.17771" width="2.95555" height="5.35552" rx="1.47778" fill="#989DAD"/>
<rect x="27.8667" width="2.95555" height="5.35552" rx="1.47778" fill="#989DAD"/>
<path d="M24.9111 21.8687C24.9111 20.8827 25.7103 20.0835 26.6963 20.0835H27.3481C28.3341 20.0835 29.1333 20.8827 29.1333 21.8687V21.8687H24.9111V21.8687Z" fill="#989DAD"/>
<path d="M24.9111 28.563C24.9111 27.5771 25.7103 26.7778 26.6963 26.7778H27.3481C28.3341 26.7778 29.1333 27.5771 29.1333 28.563V28.563H24.9111V28.563Z" fill="#989DAD"/>
<path d="M8.86665 21.8687C8.86665 20.8827 9.6659 20.0835 10.6518 20.0835H11.3037C12.2896 20.0835 13.0889 20.8827 13.0889 21.8687V21.8687H8.86665V21.8687Z" fill="#989DAD"/>
<path d="M8.86665 28.563C8.86665 27.5771 9.66589 26.7778 10.6518 26.7778H11.3037C12.2896 26.7778 13.0889 27.5771 13.0889 28.563V28.563H8.86665V28.563Z" fill="#989DAD"/>
<path d="M16.8889 21.8687C16.8889 20.8827 17.6882 20.0835 18.6741 20.0835H19.326C20.3119 20.0835 21.1111 20.8827 21.1111 21.8687V21.8687H16.8889V21.8687Z" fill="#989DAD"/>
<path d="M16.8889 28.563C16.8889 27.5771 17.6882 26.7778 18.6741 26.7778H19.326C20.3119 26.7778 21.1111 27.5771 21.1111 28.563V28.563H16.8889V28.563Z" fill="#989DAD"/>
</svg>
