<svg width="48" height="48" viewBox="0 0 48 48" fill="none" xmlns="http://www.w3.org/2000/svg">
    <path
        d="M1 21.5C1 26.6717 3.15982 31.6316 7.00431 35.2886C10.8488 38.9455 16.0631 41 21.5 41C26.9369 41 32.1512 38.9455 35.9957 35.2886C39.8402 31.6316 42 26.6717 42 21.5C42 16.3283 39.8402 11.3684 35.9957 7.71142C32.1512 4.05446 26.9369 2 21.5 2C16.0631 2 10.8488 4.05446 7.00431 7.71142C3.15982 11.3684 1 16.3283 1 21.5Z"
        fill="#E9F4FF" />
    <path fill-rule="evenodd" clip-rule="evenodd"
        d="M7.38299 7.62127C11.7901 3.21417 17.7674 0.738281 24 0.738281C30.2326 0.738281 36.2099 3.21417 40.617 7.62127C45.0241 12.0284 47.5 18.0057 47.5 24.2383C47.5 30.4709 45.0241 36.4482 40.617 40.8553C36.2099 45.2624 30.2326 47.7383 24 47.7383C17.7674 47.7383 11.7901 45.2624 7.38299 40.8553C2.97589 36.4482 0.5 30.4709 0.5 24.2383C0.5 18.0057 2.97589 12.0284 7.38299 7.62127ZM24 2.73828C18.2978 2.73828 12.8292 5.00345 8.7972 9.03549C4.76517 13.0675 2.5 18.5361 2.5 24.2383C2.5 29.9404 4.76517 35.409 8.7972 39.4411C12.8292 43.4731 18.2978 45.7383 24 45.7383C29.7022 45.7383 35.1708 43.4731 39.2028 39.4411C43.2348 35.409 45.5 29.9404 45.5 24.2383C45.5 18.5361 43.2348 13.0675 39.2028 9.03549C35.1708 5.00345 29.7022 2.73828 24 2.73828Z"
        fill="#989DAD" />
    <path
        d="M22 34.2383C23.1176 31.9856 24.8422 30.0899 26.9794 28.7648C29.1165 27.4397 31.5813 26.7378 34.096 26.7383"
        stroke="#E9F4FF" stroke-width="2" stroke-linecap="round" stroke-linejoin="round" />
    <path fill-rule="evenodd" clip-rule="evenodd"
        d="M36.0958 29.7383C33.7674 29.7378 31.4852 30.3877 29.5063 31.6147C27.5275 32.8417 25.9307 34.5969 24.8958 36.6827C24.6504 37.1775 24.0503 37.3795 23.5556 37.1341C23.0608 36.8886 22.8587 36.2886 23.1042 35.7938C24.3046 33.3743 26.1569 31.3382 28.4524 29.9149C30.7479 28.4916 33.3953 27.7378 36.0962 27.7383C36.6485 27.7384 37.0961 28.1862 37.096 28.7385C37.0959 29.2908 36.6481 29.7384 36.0958 29.7383Z"
        fill="#989DAD" />
    <path fill-rule="evenodd" clip-rule="evenodd"
        d="M16.5 16.4883C16.0359 16.4883 15.5908 16.6727 15.2626 17.0008C14.9344 17.329 14.75 17.7742 14.75 18.2383C14.75 18.5844 14.8526 18.9227 15.0449 19.2105C15.2372 19.4983 15.5105 19.7226 15.8303 19.8551C16.1501 19.9875 16.5019 20.0222 16.8414 19.9547C17.1809 19.8871 17.4927 19.7205 17.7374 19.4757C17.9822 19.231 18.1489 18.9192 18.2164 18.5797C18.2839 18.2402 18.2492 17.8884 18.1168 17.5686C17.9843 17.2488 17.76 16.9755 17.4722 16.7832C17.1845 16.5909 16.8461 16.4883 16.5 16.4883Z"
        fill="#989DAD" />
    <path fill-rule="evenodd" clip-rule="evenodd"
        d="M31.5 16.4883C31.0359 16.4883 30.5908 16.6727 30.2626 17.0008C29.9344 17.329 29.75 17.7742 29.75 18.2383C29.75 18.5844 29.8526 18.9227 30.0449 19.2105C30.2372 19.4983 30.5105 19.7226 30.8303 19.8551C31.1501 19.9875 31.5019 20.0222 31.8414 19.9547C32.1809 19.8871 32.4927 19.7205 32.7374 19.4757C32.9822 19.231 33.1489 18.9192 33.2164 18.5797C33.2839 18.2402 33.2492 17.8884 33.1168 17.5686C32.9843 17.2488 32.76 16.9755 32.4722 16.7832C32.1845 16.5909 31.8461 16.4883 31.5 16.4883Z"
        fill="#989DAD" />
</svg>