<svg width="32" height="32" viewBox="0 0 32 32" fill="none" xmlns="http://www.w3.org/2000/svg">
<path d="M22 27.4507C22 28.1137 22.2634 28.7496 22.7322 29.2185C23.2011 29.6873 23.837 29.9507 24.5 29.9507C25.163 29.9507 25.7989 29.6873 26.2678 29.2185C26.7366 28.7496 27 28.1137 27 27.4507C27 26.7876 26.7366 26.1518 26.2678 25.6829C25.7989 25.2141 25.163 24.9507 24.5 24.9507C23.837 24.9507 23.2011 25.2141 22.7322 25.6829C22.2634 26.1518 22 26.7876 22 27.4507V27.4507Z" stroke="#051259" stroke-width="2" stroke-linecap="round" stroke-linejoin="round"/>
<path d="M1 27.4507C1 28.1137 1.26339 28.7496 1.73223 29.2185C2.20107 29.6873 2.83696 29.9507 3.5 29.9507C4.16304 29.9507 4.79893 29.6873 5.26777 29.2185C5.73661 28.7496 6 28.1137 6 27.4507C6 26.7876 5.73661 26.1518 5.26777 25.6829C4.79893 25.2141 4.16304 24.9507 3.5 24.9507C2.83696 24.9507 2.20107 25.2141 1.73223 25.6829C1.26339 26.1518 1 26.7876 1 27.4507V27.4507Z" stroke="#051259" stroke-width="2" stroke-linecap="round" stroke-linejoin="round"/>
<path d="M6 27.4507C6 28.1137 6.26339 28.7496 6.73223 29.2185C7.20107 29.6873 7.83696 29.9507 8.5 29.9507C9.16304 29.9507 9.79893 29.6873 10.2678 29.2185C10.7366 28.7496 11 28.1137 11 27.4507C11 26.7876 10.7366 26.1518 10.2678 25.6829C9.79893 25.2141 9.16304 24.9507 8.5 24.9507C7.83696 24.9507 7.20107 25.2141 6.73223 25.6829C6.26339 26.1518 6 26.7876 6 27.4507V27.4507Z" stroke="#051259" stroke-width="2" stroke-linecap="round" stroke-linejoin="round"/>
<path d="M16 26.9507V22.9507H29C29.5304 22.9507 30.0391 23.1614 30.4142 23.5365C30.7893 23.9115 31 24.4203 31 24.9507C31 25.4811 30.7893 25.9898 30.4142 26.3649C30.0391 26.74 29.5304 26.9507 29 26.9507H26.9507" stroke="#051259" stroke-width="2" stroke-linecap="round" stroke-linejoin="round"/>
<path d="M30 23.2188V14.9521C30 13.3608 29.3679 11.8347 28.2426 10.7095C27.1174 9.58429 25.5913 8.95215 24 8.95215H16V22.9522" stroke="#051259" stroke-width="2" stroke-linecap="round" stroke-linejoin="round"/>
<path d="M16 8.95082V4.36282C15.9999 4.06271 16.0672 3.76641 16.1972 3.49589C16.3271 3.22537 16.5163 2.98756 16.7506 2.80008C16.985 2.6126 17.2585 2.48027 17.5509 2.41288C17.8434 2.3455 18.1472 2.34479 18.44 2.41082C20.5627 2.88682 23.392 3.73348 24 4.95082C24.5713 6.21313 24.91 7.56818 25 8.95082V9.03482" stroke="#051259" stroke-width="2" stroke-linecap="round" stroke-linejoin="round"/>
<path d="M12 20.9507H1" stroke="#051259" stroke-width="2" stroke-linecap="round" stroke-linejoin="round"/>
<path d="M30 17.9507H16" stroke="#051259" stroke-width="2" stroke-linecap="round" stroke-linejoin="round"/>
<path d="M22 8.95068V17.9507" stroke="#051259" stroke-width="2" stroke-linecap="round" stroke-linejoin="round"/>
<path d="M12 22.9507V3.95068C12 3.42025 11.7893 2.91154 11.4142 2.53647C11.0391 2.1614 10.5304 1.95068 10 1.95068H1" stroke="#051259" stroke-width="2" stroke-linecap="round" stroke-linejoin="round"/>
<path d="M22.0507 26.9507H16H10.948" stroke="#051259" stroke-width="2" stroke-linecap="round" stroke-linejoin="round"/>
</svg>
