<svg width="32" height="32" viewBox="0 0 32 32" fill="none" xmlns="http://www.w3.org/2000/svg">
<path d="M21 7L18 17H10L8 11H19.8" stroke="#051259" stroke-width="2" stroke-linecap="round" stroke-linejoin="round"/>
<path d="M10.5 20C10.5989 20 10.6956 20.0293 10.7778 20.0843C10.86 20.1392 10.9241 20.2173 10.9619 20.3087C10.9998 20.4 11.0097 20.5006 10.9904 20.5975C10.9711 20.6945 10.9235 20.7836 10.8536 20.8536C10.7836 20.9235 10.6945 20.9711 10.5975 20.9904C10.5006 21.0097 10.4 20.9998 10.3087 20.9619C10.2173 20.9241 10.1392 20.86 10.0843 20.7778C10.0293 20.6956 10 20.5989 10 20.5C10 20.3674 10.0527 20.2402 10.1464 20.1464C10.2402 20.0527 10.3674 20 10.5 20Z" stroke="#051259" stroke-width="2" stroke-linecap="round" stroke-linejoin="round"/>
<path d="M17.5 20C17.5989 20 17.6956 20.0293 17.7778 20.0843C17.86 20.1392 17.9241 20.2173 17.9619 20.3087C17.9998 20.4 18.0097 20.5006 17.9904 20.5975C17.9711 20.6945 17.9235 20.7836 17.8536 20.8536C17.7836 20.9235 17.6945 20.9711 17.5975 20.9904C17.5006 21.0097 17.4 20.9998 17.3087 20.9619C17.2173 20.9241 17.1392 20.86 17.0843 20.7778C17.0293 20.6956 17 20.5989 17 20.5C17 20.3674 17.0527 20.2402 17.1464 20.1464C17.2402 20.0527 17.3674 20 17.5 20" stroke="#051259" stroke-width="2" stroke-linecap="round" stroke-linejoin="round"/>
<path d="M18.4733 26.2094C15.715 27.218 12.6962 27.2619 9.90964 26.3338C7.12313 25.4057 4.73349 23.5605 3.13077 21.0994C1.52806 18.6382 0.806915 15.7065 1.08506 12.7827C1.3632 9.85889 2.6242 7.11571 4.66224 5.00091C6.70027 2.8861 9.39497 1.52457 12.3065 1.13856C15.218 0.752541 18.1744 1.36483 20.6931 2.87549C23.2118 4.38615 25.1441 6.70596 26.1745 9.45627C27.2049 12.2066 27.2727 15.2249 26.3667 18.0187" stroke="#051259" stroke-width="2" stroke-linecap="round" stroke-linejoin="round"/>
<path d="M21.808 21.8066L25.3427 31L27.464 27.464L31 25.3426L21.808 21.8066Z" stroke="#051259" stroke-width="2" stroke-linecap="round" stroke-linejoin="round"/>
<path d="M31 31.0001L27.464 27.4641" stroke="#051259" stroke-width="2" stroke-linecap="round" stroke-linejoin="round"/>
</svg>
