<svg width="32" height="32" viewBox="0 0 32 32" fill="none" xmlns="http://www.w3.org/2000/svg">
<path d="M20.1813 31L22.9613 3.2C22.9893 2.92195 22.9586 2.64112 22.8714 2.37563C22.7842 2.11014 22.6422 1.86588 22.4548 1.6586C22.2674 1.45132 22.0386 1.28562 21.7832 1.17218C21.5278 1.05874 21.2515 1.00009 20.972 1H5.992C5.49585 0.999499 5.01721 1.18344 4.64909 1.51608C4.28096 1.84873 4.04962 2.30633 4 2.8L1.18134 31" stroke="#051259" stroke-width="2" stroke-linecap="round" stroke-linejoin="round"/>
<path d="M22.72 5.61475L30.8173 30.9934" stroke="#051259" stroke-width="2" stroke-linecap="round" stroke-linejoin="round"/>
<path d="M28.2667 23H20.9813" stroke="#051259" stroke-width="2" stroke-linecap="round" stroke-linejoin="round"/>
<path d="M17.4013 15.248C17.3409 15.7319 17.1057 16.1769 16.7401 16.4996C16.3745 16.8222 15.9036 17.0002 15.416 17H8.44665C8.16299 16.9999 7.88259 16.9395 7.62406 16.8228C7.36553 16.7061 7.13478 16.5357 6.94714 16.323C6.7595 16.1102 6.61926 15.86 6.53573 15.5889C6.4522 15.3179 6.42729 15.0321 6.46265 14.7507L6.96265 10.7507C7.02339 10.2673 7.25847 9.82269 7.62378 9.50035C7.98908 9.17801 8.45947 9.0001 8.94665 9H15.916C16.1996 8.99989 16.4801 9.06012 16.7386 9.17668C16.9972 9.29324 17.2281 9.46348 17.4158 9.67608C17.6036 9.88868 17.744 10.1388 17.8277 10.4098C17.9114 10.6808 17.9365 10.9665 17.9013 11.248L17.4013 15.248Z" stroke="#051259" stroke-width="2" stroke-linecap="round" stroke-linejoin="round"/>
<path d="M9.18134 5H16.1813" stroke="#051259" stroke-width="2" stroke-linecap="round" stroke-linejoin="round"/>
<path d="M1.78134 25H20.7813" stroke="#051259" stroke-width="2" stroke-linecap="round" stroke-linejoin="round"/>
</svg>
