<svg width="32" height="32" viewBox="0 0 32 32" fill="none" xmlns="http://www.w3.org/2000/svg">
<path d="M14.5 4.5C14.5 5.42826 14.8687 6.3185 15.5251 6.97487C16.1815 7.63125 17.0717 8 18 8C18.9283 8 19.8185 7.63125 20.4749 6.97487C21.1313 6.3185 21.5 5.42826 21.5 4.5C21.5 3.57174 21.1313 2.6815 20.4749 2.02513C19.8185 1.36875 18.9283 1 18 1C17.0717 1 16.1815 1.36875 15.5251 2.02513C14.8687 2.6815 14.5 3.57174 14.5 4.5V4.5Z" stroke="#051259" stroke-width="2" stroke-linecap="round" stroke-linejoin="round"/>
<path d="M14.536 4H23" stroke="#051259" stroke-width="2" stroke-linecap="round" stroke-linejoin="round"/>
<path d="M1.97339 17.9481C3.06451 17.4042 4.25446 17.087 5.47149 17.0155C6.68852 16.944 7.90743 17.1197 9.05472 17.5321" stroke="#051259" stroke-width="2" stroke-linecap="round" stroke-linejoin="round"/>
<path d="M30.0267 17.948C28.7762 17.3238 27.3976 16.9992 26 17" stroke="#051259" stroke-width="2" stroke-linecap="round" stroke-linejoin="round"/>
<path d="M16 27.9999C15.4695 27.9999 14.9608 27.7892 14.5858 27.4141C14.2107 27.0391 14 26.5303 14 25.9999V24.3999C13.9979 23.7098 13.8182 23.0318 13.4782 22.4311C13.1382 21.8305 12.6493 21.3276 12.0586 20.9706L9.97063 19.7186C9.52241 19.4493 9.19745 19.0153 9.06536 18.5093C8.93327 18.0034 9.00457 17.4659 9.26396 17.0119L13.264 10.0119C13.4622 9.66559 13.7595 9.38647 14.1176 9.21046C14.4757 9.03444 14.8783 8.96958 15.2736 9.0242C15.6688 9.07883 16.0387 9.25044 16.3357 9.51699C16.6327 9.78353 16.8431 10.1328 16.94 10.5199C17.0533 10.9079 17.8133 13.0039 21 13.0039C21.5304 13.0039 22.0391 13.2146 22.4142 13.5897C22.7892 13.9648 23 14.4735 23 15.0039C23 15.5343 22.7892 16.0431 22.4142 16.4181C22.0391 16.7932 21.5304 17.0039 21 17.0039C18.8306 17.0747 16.7196 16.2947 15.1173 14.8306L13.708 17.2972L14.116 17.5412C15.2982 18.2544 16.2766 19.2601 16.957 20.4615C17.6373 21.6629 17.9965 23.0193 18 24.3999V25.9999C18 26.5303 17.7893 27.0391 17.4142 27.4141C17.0391 27.7892 16.5304 27.9999 16 27.9999Z" stroke="#051259" stroke-width="2" stroke-linecap="round" stroke-linejoin="round"/>
<path d="M1 26.5C1 27.6935 1.47411 28.8381 2.31802 29.682C3.16193 30.5259 4.30653 31 5.5 31C6.69347 31 7.83807 30.5259 8.68198 29.682C9.52589 28.8381 10 27.6935 10 26.5C10 25.3065 9.52589 24.1619 8.68198 23.318C7.83807 22.4741 6.69347 22 5.5 22C4.30653 22 3.16193 22.4741 2.31802 23.318C1.47411 24.1619 1 25.3065 1 26.5V26.5Z" stroke="#051259" stroke-width="2" stroke-linecap="round" stroke-linejoin="round"/>
<path d="M22 26.5C22 27.6935 22.4741 28.8381 23.318 29.682C24.1619 30.5259 25.3065 31 26.5 31C27.6935 31 28.8381 30.5259 29.682 29.682C30.5259 28.8381 31 27.6935 31 26.5C31 25.3065 30.5259 24.1619 29.682 23.318C28.8381 22.4741 27.6935 22 26.5 22C25.3065 22 24.1619 22.4741 23.318 23.318C22.4741 24.1619 22 25.3065 22 26.5Z" stroke="#051259" stroke-width="2" stroke-linecap="round" stroke-linejoin="round"/>
</svg>
