<svg width="32" height="32" viewBox="0 0 32 32" fill="none" xmlns="http://www.w3.org/2000/svg">
<path d="M1 28C1 28.394 1.0776 28.7841 1.22836 29.1481C1.37913 29.512 1.6001 29.8427 1.87868 30.1213C2.15726 30.3999 2.48797 30.6209 2.85195 30.7716C3.21593 30.9224 3.60603 31 4 31C4.39397 31 4.78407 30.9224 5.14805 30.7716C5.51203 30.6209 5.84274 30.3999 6.12132 30.1213C6.3999 29.8427 6.62087 29.512 6.77164 29.1481C6.9224 28.7841 7 28.394 7 28C7 27.606 6.9224 27.2159 6.77164 26.8519C6.62087 26.488 6.3999 26.1573 6.12132 25.8787C5.84274 25.6001 5.51203 25.3791 5.14805 25.2284C4.78407 25.0776 4.39397 25 4 25C3.60603 25 3.21593 25.0776 2.85195 25.2284C2.48797 25.3791 2.15726 25.6001 1.87868 25.8787C1.6001 26.1573 1.37913 26.488 1.22836 26.8519C1.0776 27.2159 1 27.606 1 28V28Z" stroke="#051259" stroke-width="2" stroke-linecap="round" stroke-linejoin="round"/>
<path d="M15 28C15 28.7956 15.3161 29.5587 15.8787 30.1213C16.4413 30.6839 17.2044 31 18 31C18.7956 31 19.5587 30.6839 20.1213 30.1213C20.6839 29.5587 21 28.7956 21 28C21 27.2044 20.6839 26.4413 20.1213 25.8787C19.5587 25.3161 18.7956 25 18 25C17.2044 25 16.4413 25.3161 15.8787 25.8787C15.3161 26.4413 15 27.2044 15 28V28Z" stroke="#051259" stroke-width="2" stroke-linecap="round" stroke-linejoin="round"/>
<path d="M20 21H4.56133C4.11539 21 3.68225 20.8509 3.33075 20.5764C2.97925 20.302 2.72955 19.918 2.62133 19.4853L1 13H23" stroke="#051259" stroke-width="2" stroke-linecap="round" stroke-linejoin="round"/>
<path d="M18.4854 25.0389L25.0293 7.58819C25.3152 6.82568 25.8269 6.16857 26.4962 5.70468C27.1655 5.24079 27.9604 4.99222 28.7747 4.99219H31" stroke="#051259" stroke-width="2" stroke-linecap="round" stroke-linejoin="round"/>
<path d="M6.82935 27H15.1707" stroke="#051259" stroke-width="2" stroke-linecap="round" stroke-linejoin="round"/>
<path d="M1 13C1 9.8174 2.26428 6.76516 4.51472 4.51472C6.76516 2.26428 9.8174 1 13 1V13" stroke="#051259" stroke-width="2" stroke-linecap="round" stroke-linejoin="round"/>
<path d="M13 13.0001L2.6333 6.95215" stroke="#051259" stroke-width="2" stroke-linecap="round" stroke-linejoin="round"/>
<path d="M13 13L6.95203 2.6333" stroke="#051259" stroke-width="2" stroke-linecap="round" stroke-linejoin="round"/>
</svg>
